<?xml version="1.0" encoding="UTF-8" standalone="no"?>
<!-- Created with Inkscape (http://www.inkscape.org/) -->

<svg
   xmlns:dc="http://purl.org/dc/elements/1.1/"
   xmlns:cc="http://creativecommons.org/ns#"
   xmlns:rdf="http://www.w3.org/1999/02/22-rdf-syntax-ns#"
   xmlns:svg="http://www.w3.org/2000/svg"
   xmlns="http://www.w3.org/2000/svg"
   xmlns:sodipodi="http://sodipodi.sourceforge.net/DTD/sodipodi-0.dtd"
   xmlns:inkscape="http://www.inkscape.org/namespaces/inkscape"
   width="480"
   height="240"
   id="svg2"
   version="1.1"
   inkscape:version="0.48.5 r10040"
   sodipodi:docname="bytespeicher.svg">
  <defs
     id="defs4" />
  <sodipodi:namedview
     id="base"
     pagecolor="#ffffff"
     bordercolor="#666666"
     borderopacity="1.0"
     inkscape:pageopacity="0.0"
     inkscape:pageshadow="2"
     inkscape:zoom="1"
     inkscape:cx="208.32545"
     inkscape:cy="187.34437"
     inkscape:document-units="px"
     inkscape:current-layer="layer1"
     showgrid="false"
     inkscape:window-width="1366"
     inkscape:window-height="718"
     inkscape:window-x="0"
     inkscape:window-y="28"
     inkscape:window-maximized="1" />
  <metadata
     id="metadata7">
    <rdf:RDF>
      <cc:Work
         rdf:about="">
        <dc:format>image/svg+xml</dc:format>
        <dc:type
           rdf:resource="http://purl.org/dc/dcmitype/StillImage" />
        <dc:title />
      </cc:Work>
    </rdf:RDF>
  </metadata>
  <g
     inkscape:label="Layer 1"
     inkscape:groupmode="layer"
     id="layer1"
     transform="translate(0,-812.36212)">
    <g
       id="g3002"
       transform="translate(-7.985136,-17.329254)">
      <rect
         rx="7.5"
         y="894.43103"
         x="178.31631"
         height="93.171867"
         width="266.9487"
         id="rect2996"
         style="fill:#151513;fill-opacity:1;stroke:none" />
      <rect
         rx="4"
         y="887.03705"
         x="189.49045"
         height="14.642859"
         width="23.214287"
         id="rect3766"
         style="fill:#7d7f75;fill-opacity:1;stroke:none" />
      <rect
         rx="4"
         y="887.03705"
         x="226.72263"
         height="14.642859"
         width="23.214287"
         id="rect3766-4"
         style="fill:#7d7f75;fill-opacity:1;stroke:none" />
      <rect
         rx="4"
         y="887.03705"
         x="263.9548"
         height="14.642859"
         width="23.214287"
         id="rect3766-2"
         style="fill:#7d7f75;fill-opacity:1;stroke:none" />
      <rect
         rx="4"
         y="887.03705"
         x="301.18698"
         height="14.642859"
         width="23.214287"
         id="rect3766-3"
         style="fill:#7d7f75;fill-opacity:1;stroke:none" />
      <rect
         rx="4"
         y="887.03705"
         x="338.41919"
         height="14.642859"
         width="23.214287"
         id="rect3766-6"
         style="fill:#7d7f75;fill-opacity:1;stroke:none" />
      <rect
         rx="4"
         y="887.03705"
         x="375.65137"
         height="14.642859"
         width="23.214287"
         id="rect3766-32"
         style="fill:#7d7f75;fill-opacity:1;stroke:none" />
      <rect
         rx="4"
         y="887.03705"
         x="412.88354"
         height="14.642859"
         width="23.214287"
         id="rect3766-27"
         style="fill:#7d7f75;fill-opacity:1;stroke:none" />
      <path
         inkscape:connector-curvature="0"
         id="rect3821"
         d="m 192.03288,982.68995 c -2.216,0 -4,1.784 -4,4 l 0,12.375 c 0,2.21595 1.784,3.99995 4,3.99995 l 3.84375,0 c -2.5e-4,0.021 0,0.041 0,0.062 l 0,5.2188 c 0,2.216 1.34946,4 3.03125,4 1.68179,0 3.03125,-1.784 3.03125,-4 l 0,-5.2188 c 0,-0.021 2.5e-4,-0.041 0,-0.062 l 5.28125,0 c 2.216,0 4,-1.784 4,-3.99995 l 0,-12.375 c 0,-2.216 -1.784,-4 -4,-4 l -15.1875,0 z"
         style="fill:#7d7f75;fill-opacity:1;stroke:none" />
      <path
         id="rect3821-2"
         d="m 229.20548,982.68995 c -2.216,0 -4,1.784 -4,4 l 0,12.375 c 0,2.21595 1.784,3.99995 4,3.99995 l 3.84375,0 c -2.5e-4,0.021 0,0.041 0,0.062 l 0,5.2188 c 0,2.216 1.34946,4 3.03125,4 1.68179,0 3.03125,-1.784 3.03125,-4 l 0,-5.2188 c 0,-0.021 2.5e-4,-0.041 0,-0.062 l 5.28125,0 c 2.216,0 4,-1.784 4,-3.99995 l 0,-12.375 c 0,-2.216 -1.784,-4 -4,-4 l -15.1875,0 z"
         style="fill:#7d7f75;fill-opacity:1;stroke:none"
         inkscape:connector-curvature="0" />
      <path
         id="rect3821-0"
         d="m 266.37809,982.68995 c -2.216,0 -4,1.784 -4,4 l 0,12.375 c 0,2.21595 1.784,3.99995 4,3.99995 l 3.84375,0 c -2.5e-4,0.021 0,0.041 0,0.062 l 0,5.2188 c 0,2.216 1.34946,4 3.03125,4 1.68179,0 3.03125,-1.784 3.03125,-4 l 0,-5.2188 c 0,-0.021 2.5e-4,-0.041 0,-0.062 l 5.28125,0 c 2.216,0 4,-1.784 4,-3.99995 l 0,-12.375 c 0,-2.216 -1.784,-4 -4,-4 l -15.1875,0 z"
         style="fill:#7d7f75;fill-opacity:1;stroke:none"
         inkscape:connector-curvature="0" />
      <path
         id="rect3821-1"
         d="m 303.5507,982.68995 c -2.216,0 -4,1.784 -4,4 l 0,12.375 c 0,2.21595 1.784,3.99995 4,3.99995 l 3.84375,0 c -2.5e-4,0.021 0,0.041 0,0.062 l 0,5.2188 c 0,2.216 1.34946,4 3.03125,4 1.68179,0 3.03125,-1.784 3.03125,-4 l 0,-5.2188 c 0,-0.021 2.5e-4,-0.041 0,-0.062 l 5.28125,0 c 2.216,0 4,-1.784 4,-3.99995 l 0,-12.375 c 0,-2.216 -1.784,-4 -4,-4 l -15.1875,0 z"
         style="fill:#7d7f75;fill-opacity:1;stroke:none"
         inkscape:connector-curvature="0" />
      <path
         id="rect3821-8"
         d="m 340.72334,982.68995 c -2.216,0 -4,1.784 -4,4 l 0,12.375 c 0,2.21595 1.784,3.99995 4,3.99995 l 3.84375,0 c -2.5e-4,0.021 0,0.041 0,0.062 l 0,5.2188 c 0,2.216 1.34946,4 3.03125,4 1.68179,0 3.03125,-1.784 3.03125,-4 l 0,-5.2188 c 0,-0.021 2.5e-4,-0.041 0,-0.062 l 5.28125,0 c 2.216,0 4,-1.784 4,-3.99995 l 0,-12.375 c 0,-2.216 -1.784,-4 -4,-4 l -15.1875,0 z"
         style="fill:#7d7f75;fill-opacity:1;stroke:none"
         inkscape:connector-curvature="0" />
      <path
         id="rect3821-3"
         d="m 377.89594,982.68995 c -2.216,0 -4,1.784 -4,4 l 0,12.375 c 0,2.21595 1.784,3.99995 4,3.99995 l 3.84375,0 c -2.5e-4,0.021 0,0.041 0,0.062 l 0,5.2188 c 0,2.216 1.34946,4 3.03125,4 1.68179,0 3.03125,-1.784 3.03125,-4 l 0,-5.2188 c 0,-0.021 2.5e-4,-0.041 0,-0.062 l 5.28125,0 c 2.216,0 4,-1.784 4,-3.99995 l 0,-12.375 c 0,-2.216 -1.784,-4 -4,-4 l -15.1875,0 z"
         style="fill:#7d7f75;fill-opacity:1;stroke:none"
         inkscape:connector-curvature="0" />
      <path
         id="rect3821-09"
         d="m 415.06855,982.68995 c -2.216,0 -4,1.784 -4,4 l 0,12.375 c 0,2.21595 1.784,3.99995 4,3.99995 l 3.84375,0 c -2.5e-4,0.021 0,0.041 0,0.062 l 0,5.2188 c 0,2.216 1.34946,4 3.03125,4 1.68179,0 3.03125,-1.784 3.03125,-4 l 0,-5.2188 c 0,-0.021 2.5e-4,-0.041 0,-0.062 l 5.28125,0 c 2.216,0 4,-1.784 4,-3.99995 l 0,-12.375 c 0,-2.216 -1.784,-4 -4,-4 l -15.1875,0 z"
         style="fill:#7d7f75;fill-opacity:1;stroke:none"
         inkscape:connector-curvature="0" />
      <text
         sodipodi:linespacing="125%"
         id="text3879"
         y="962.89197"
         x="188.30627"
         style="font-size:64.90592957px;font-style:normal;font-variant:normal;font-weight:normal;font-stretch:normal;line-height:125%;letter-spacing:0px;word-spacing:0px;fill:#cccccc;fill-opacity:1;stroke:none;font-family:Roboto;-inkscape-font-specification:Roboto"
         xml:space="preserve"><tspan
           style="font-size:64px;font-style:normal;font-variant:normal;font-weight:normal;font-stretch:normal;text-align:start;line-height:125%;writing-mode:lr-tb;text-anchor:start;fill:#cccccc;fill-opacity:1;font-family:Roboto;-inkscape-font-specification:Roboto"
           y="962.89197"
           x="188.30627"
           id="tspan3881"
           sodipodi:role="line">speicher</tspan></text>
      <text
         sodipodi:linespacing="125%"
         id="text3883"
         y="962.89197"
         x="46.830257"
         style="font-size:71.70278931px;font-style:normal;font-weight:normal;line-height:125%;letter-spacing:0px;word-spacing:0px;fill:#0b76a0;fill-opacity:1;stroke:none;font-family:Sans"
         xml:space="preserve"><tspan
           style="font-size:64px;font-style:normal;font-variant:normal;font-weight:500;font-stretch:normal;text-align:start;line-height:125%;writing-mode:lr-tb;text-anchor:start;fill:#0b76a0;fill-opacity:1;stroke:none;font-family:Roboto;-inkscape-font-specification:Roboto Medium"
           y="962.89197"
           x="46.830257"
           id="tspan3885"
           sodipodi:role="line">byte</tspan></text>
    </g>
  </g>
</svg>
