<?xml version="1.0" encoding="UTF-8" standalone="no"?>
<!-- Created with Inkscape (http://www.inkscape.org/) -->

<svg
   xmlns:dc="http://purl.org/dc/elements/1.1/"
   xmlns:cc="http://creativecommons.org/ns#"
   xmlns:rdf="http://www.w3.org/1999/02/22-rdf-syntax-ns#"
   xmlns:svg="http://www.w3.org/2000/svg"
   xmlns="http://www.w3.org/2000/svg"
   xmlns:sodipodi="http://sodipodi.sourceforge.net/DTD/sodipodi-0.dtd"
   xmlns:inkscape="http://www.inkscape.org/namespaces/inkscape"
   width="500"
   height="250"
   id="svg2"
   version="1.1"
   inkscape:version="0.48.4 r9939"
   sodipodi:docname="Neues Dokument 1">
  <defs
     id="defs4" />
  <sodipodi:namedview
     id="base"
     pagecolor="#ffffff"
     bordercolor="#666666"
     borderopacity="1.0"
     inkscape:pageopacity="0.0"
     inkscape:pageshadow="2"
     inkscape:zoom="0.5"
     inkscape:cx="373.74037"
     inkscape:cy="22.572211"
     inkscape:document-units="px"
     inkscape:current-layer="text3175"
     showgrid="false"
     inkscape:window-width="967"
     inkscape:window-height="649"
     inkscape:window-x="78"
     inkscape:window-y="297"
     inkscape:window-maximized="0" />
  <metadata
     id="metadata7">
    <rdf:RDF>
      <cc:Work
         rdf:about="">
        <dc:format>image/svg+xml</dc:format>
        <dc:type
           rdf:resource="http://purl.org/dc/dcmitype/StillImage" />
        <dc:title></dc:title>
      </cc:Work>
    </rdf:RDF>
  </metadata>
  <g
     inkscape:label="Ebene 1"
     inkscape:groupmode="layer"
     id="layer1"
     transform="translate(0,-802.36218)">
    <g
       id="g3095"
       transform="matrix(0.97042059,0,0,0.97042059,11.184178,288.59583)">
      <path
         sodipodi:nodetypes="cccccccccccc"
         inkscape:connector-curvature="0"
         id="rect2996"
         d="m 445.34375,831.51843 -5.625,98.96875 -86.21875,-32.25 2.3125,34.34375 -103.28125,-35.03125 1.375,34.3125 -91.5625,-34.65625 0.375,34.3125 0,102.84377 c 107.06296,0 223.40851,0 326.46875,0 L 477.71875,831.51843 z"
         style="fill:#000000;fill-opacity:1;stroke:none" />
      <text
         sodipodi:linespacing="125%"
         id="text2985"
         y="1005.3622"
         x="7"
         style="font-size:72px;font-style:normal;font-variant:normal;font-weight:normal;font-stretch:normal;line-height:125%;letter-spacing:0px;word-spacing:0px;fill:#000000;fill-opacity:1;stroke:none;font-family:Roboto Slab;-inkscape-font-specification:Roboto Slab"
         xml:space="preserve"><tspan
           y="1005.3622"
           x="7"
           id="tspan2987"
           sodipodi:role="line"><tspan
             id="tspan2989"
             style="font-weight:bold;-inkscape-font-specification:Roboto Slab Bold">byte </tspan><tspan
             id="tspan2993"
             style="font-weight:normal;fill:#ffffff;-inkscape-font-specification:Roboto Slab">speicher</tspan></tspan></text>
      <g
         transform="matrix(0,-0.14545795,0.14545795,0,383.26104,911.97629)"
         id="g3088">
        <path
           style="fill:#020202"
           inkscape:connector-curvature="0"
           d="m 233.503,70.369 c 93.726,-6.75 189.622,28.317 256.515,94.363 8.765,9.023 7.622,24.807 -1.625,33.076 -8.493,10.012 -25.501,10.189 -34.266,0.436 -57.224,-55.091 -138.018,-84.881 -217.35,-78.956 -65.905,4.24 -129.749,32.628 -177.572,78.096 -4.253,4.347 -9.684,7.916 -15.938,8.222 -15.666,1.837 -30.154,-14.536 -26.773,-29.86 0.954,-5.501 4.487,-10.083 8.527,-13.747 55.988,-53.607 131.151,-86.53 208.482,-91.63 z"
           id="path3074" />
        <path
           style="fill:#020202"
           inkscape:connector-curvature="0"
           d="m 231.183,162.282 c 71.806,-7.81 146.369,18.658 197.183,69.968 7.939,9.07 6.95,23.901 -1.872,32.052 -8.046,9.847 -24.265,10.953 -33.383,2.024 -32.534,-32.074 -76.518,-52.44 -122.126,-55.774 -55.387,-4.594 -111.974,16.42 -151.411,55.445 -9.094,9.612 -26.033,8.518 -34.218,-1.708 -8.823,-8.327 -9.553,-23.559 -1.084,-32.381 39.084,-39.106 91.937,-63.984 146.911,-69.626 z"
           id="path3076" />
        <path
           style="fill:#020202"
           inkscape:connector-curvature="0"
           d="m 241.796,252.97 c 45.314,-4.499 92.161,12.852 123.693,45.669 8.634,8.987 7.634,24.454 -1.461,32.77 -8.257,9.966 -24.807,10.638 -33.782,1.296 -17.774,-18.245 -42.394,-29.778 -67.884,-31.168 -28.929,-2.062 -58.201,9.365 -78.744,29.695 -5.053,5.679 -12.557,9.165 -20.237,8.259 -17.833,-1.25 -30.213,-25.056 -17.928,-39.344 24.807,-26.904 60.039,-43.572 96.343,-47.177 z"
           id="path3078" />
      </g>
    </g>
    <g
       transform="matrix(0.97042059,0,0,0.97042059,11.184178,21.595831)"
       id="g3106">
      <path
         style="fill:#000000;fill-opacity:1;stroke:none"
         d="m 445.34375,831.51843 -5.625,98.96875 -86.21875,-32.25 2.3125,34.34375 -103.28125,-35.03125 1.375,34.3125 -91.5625,-34.65625 0.375,34.3125 0,102.84377 c 107.06296,0 223.40851,0 326.46875,0 L 477.71875,831.51843 z"
         id="path3108"
         inkscape:connector-curvature="0"
         sodipodi:nodetypes="cccccccccccc" />
      <text
         xml:space="preserve"
         style="font-size:72px;font-style:normal;font-variant:normal;font-weight:normal;font-stretch:normal;line-height:125%;letter-spacing:0px;word-spacing:0px;fill:#000000;fill-opacity:1;stroke:none;font-family:Roboto Slab;-inkscape-font-specification:Roboto Slab"
         x="7"
         y="1005.3622"
         id="text3110"
         sodipodi:linespacing="125%"><tspan
           sodipodi:role="line"
           id="tspan3112"
           x="7"
           y="1005.3622"><tspan
             style="font-weight:bold;-inkscape-font-specification:Roboto Slab Bold"
             id="tspan3114">byte </tspan><tspan
             style="font-weight:normal;fill:#ffffff;-inkscape-font-specification:Roboto Slab"
             id="tspan3116">speicher</tspan></tspan></text>
    </g>
    <g
       id="g3171"
       transform="matrix(0.97042059,0,0,0.97042059,535.18418,21.595831)">
      <path
         sodipodi:nodetypes="cccccccccccc"
         inkscape:connector-curvature="0"
         id="path3173"
         d="m 445.34375,831.51843 -5.625,98.96875 -86.21875,-32.25 2.3125,34.34375 -103.28125,-35.03125 1.375,34.3125 -91.5625,-34.65625 0.375,34.3125 0,102.84377 c 107.06296,0 223.40851,0 326.46875,0 L 477.71875,831.51843 z"
         style="fill:#000000;fill-opacity:1;stroke:none" />
      <g
         style="font-size:72px;font-style:normal;font-variant:normal;font-weight:normal;font-stretch:normal;line-height:125%;letter-spacing:0px;word-spacing:0px;fill:#000000;fill-opacity:1;stroke:none;font-family:Roboto Slab;-inkscape-font-specification:Roboto Slab"
         id="text3175">
        <path
           d="m 45.988281,987.39734 c -3.9e-5,5.67189 -1.265662,10.20704 -3.796875,13.60546 -2.531282,3.3984 -6.187529,5.0977 -10.96875,5.0977 -2.226584,0 -4.160176,-0.4571 -5.800781,-1.3711 -1.640642,-0.9375 -3.023453,-2.2852 -4.148438,-4.043 l -0.738281,4.6758 -8.859375,0 0,-47.60158 -5.4492185,-1.05469 0,-6.1875 15.6796875,0 0,20.84766 c 1.101546,-1.5234 2.414045,-2.69528 3.9375,-3.51563 1.546855,-0.82027 3.316384,-1.23043 5.308594,-1.23046 4.828096,3e-5 8.50778,1.82816 11.039062,5.48437 2.531213,3.63284 3.796836,8.4844 3.796875,14.55469 l 0,0.73828 m -10.230469,-0.73828 c -2.8e-5,-3.7031 -0.550809,-6.63279 -1.652343,-8.78906 -1.078151,-2.17966 -2.929712,-3.26951 -5.554688,-3.26954 -1.59377,3e-5 -2.941425,0.33988 -4.042969,1.01954 -1.101578,0.65627 -1.968765,1.60549 -2.601562,2.84765 l 0,16.06641 c 0.632797,1.17188 1.499984,2.06251 2.601562,2.67187 1.124982,0.60939 2.496074,0.91407 4.113282,0.91407 2.648413,0 4.499974,-0.92578 5.554687,-2.77735 1.05466,-1.87499 1.582003,-4.52342 1.582031,-7.94531 l 0,-0.73828"
           style="font-weight:bold;-inkscape-font-specification:Roboto Slab Bold"
           id="path3184" />
        <path
           d="m 89.652344,973.51062 -3.550782,0.52734 -13.992187,37.01954 c -1.101585,2.7422 -2.578146,5.039 -4.429688,6.8906 -1.828142,1.8516 -4.593765,2.7773 -8.296875,2.7774 -0.867197,-10e-5 -1.687509,-0.07 -2.460937,-0.211 -0.750008,-0.1406 -1.640632,-0.3398 -2.671875,-0.5976 l 1.195312,-7.4883 c 0.328118,0.047 0.667961,0.094 1.019532,0.1406 0.351553,0.047 0.656241,0.07 0.914062,0.07 1.710927,0 3.023425,-0.4219 3.9375,-1.2656 0.914049,-0.8203 1.617173,-1.8516 2.109375,-3.0937 l 1.160156,-2.8829 -12.058593,-31.32418 -3.550782,-0.5625 0,-6.1875 18.632813,0 0,6.1875 -4.253906,0.70313 5.203125,15.1875 0.527343,2.74218 0.210938,0.0352 6.011719,-17.96484 -4.289063,-0.70313 0,-6.1875 18.632813,0 0,6.1875"
           style="font-weight:bold;-inkscape-font-specification:Roboto Slab Bold"
           id="path3186" />
        <path
           d="m 108.03906,958.00671 0,9.31641 6.67969,0 0,7.20703 -6.67969,0 0,19.3711 c -1e-5,1.47657 0.30467,2.53125 0.91407,3.16406 0.60935,0.63282 1.42966,0.94922 2.46093,0.94922 0.70311,0 1.31248,-0.0234 1.82813,-0.0703 0.53904,-0.0703 1.13669,-0.17577 1.79297,-0.3164 l 0.8789,7.41799 c -1.14846,0.3515 -2.28518,0.6094 -3.41015,0.7734 -1.12502,0.1875 -2.34377,0.2813 -3.65625,0.2813 -3.53908,0 -6.26955,-0.9727 -8.19141,-2.918 -1.898446,-1.9453 -2.847663,-5.02734 -2.847656,-9.2461 l 0,-19.40625 -5.589844,0 0,-7.20703 5.589844,0 0,-9.31641 10.230466,0"
           style="font-weight:bold;-inkscape-font-specification:Roboto Slab Bold"
           id="path3188" />
        <path
           d="m 137.95703,1006.1005 c -5.48439,0 -9.8672,-1.7578 -13.14844,-5.2735 -3.28125,-3.51559 -4.92187,-7.98043 -4.92187,-13.3945 l 0,-1.40625 c 0,-5.64842 1.54687,-10.30076 4.64062,-13.95704 3.11718,-3.65621 7.28905,-5.47261 12.51563,-5.44921 5.13279,3e-5 9.11716,1.54691 11.95312,4.64062 2.83591,3.09378 4.25387,7.27737 4.25391,12.55078 l 0,5.58985 -22.71094,0 -0.0703,0.21093 c 0.18749,2.50783 1.01952,4.57033 2.49609,6.1875 1.49999,1.6172 3.52733,2.42579 6.08203,2.42578 2.27342,10e-6 4.16014,-0.22265 5.66016,-0.66796 1.49997,-0.46875 3.1406,-1.19531 4.92188,-2.17969 l 2.77734,6.32809 c -1.57035,1.2422 -3.60941,2.2852 -6.11719,3.1289 -2.4844,0.8438 -5.26174,1.2657 -8.33203,1.2657 m -0.91406,-31.57035 c -1.89846,3e-5 -3.39845,0.72659 -4.5,2.17969 -1.10158,1.45315 -1.78126,3.36331 -2.03906,5.73047 l 0.10546,0.17578 12.58594,0 0,-0.91406 c -2e-5,-2.17967 -0.51565,-3.91404 -1.54687,-5.20313 -1.00784,-1.31247 -2.54299,-1.96872 -4.60547,-1.96875"
           style="font-weight:bold;-inkscape-font-specification:Roboto Slab Bold"
           id="path3190" />
        <path
           d="m 205.87891,979.27625 -5.20313,0 -1.125,-4.57032 c -0.84377,-0.79684 -1.91018,-1.42965 -3.19922,-1.89843 -1.26564,-0.49216 -2.70705,-0.73825 -4.32422,-0.73829 -2.46095,4e-5 -4.28907,0.5391 -5.48437,1.61719 -1.19533,1.07816 -1.79298,2.37894 -1.79297,3.90235 -1e-5,1.50002 0.52733,2.68361 1.58203,3.55078 1.05468,0.86721 3.1992,1.64064 6.43359,2.32031 4.80467,1.03127 8.37888,2.43752 10.72266,4.21875 2.34372,1.75783 3.51559,4.12501 3.51563,7.10156 -4e-5,3.37501 -1.37113,6.10545 -4.11329,8.19145 -2.71877,2.0859 -6.28127,3.1289 -10.6875,3.1289 -2.88282,0 -5.47266,-0.3282 -7.76953,-0.9844 -2.29688,-0.6797 -4.34766,-1.6524 -6.15234,-2.918 l -0.0352,-8.68357 5.20313,0 1.30078,5.09765 c 0.79686,0.72657 1.87499,1.25391 3.23437,1.58202 1.3828,0.3281 2.78905,0.4922 4.21875,0.4922 2.46092,0 4.38279,-0.4922 5.76563,-1.47656 1.40622,-1.00781 2.10935,-2.32031 2.10937,-3.9375 -2e-5,-1.52343 -0.58596,-2.77733 -1.75781,-3.76172 -1.14846,-0.98436 -3.33986,-1.83983 -6.57422,-2.56641 -4.6172,-1.00779 -8.09766,-2.37888 -10.4414,-4.11328 -2.34376,-1.73435 -3.51563,-4.0781 -3.51563,-7.03125 0,-3.09372 1.3125,-5.73043 3.9375,-7.91015 2.64843,-2.17965 6.08202,-3.2695 10.30078,-3.26953 2.88279,3e-5 5.47264,0.37503 7.76953,1.125 2.29685,0.75003 4.20701,1.793 5.73047,3.1289 l 0.35157,8.40235"
           style="font-weight:normal;fill:#ffffff;-inkscape-font-specification:Roboto Slab"
           id="path3192" />
        <path
           d="m 212.62891,1015.5223 5.73046,-0.9843 0,-41.76566 -5.73046,-0.98438 0,-4.46484 11.67187,0 0.63281,4.64063 c 1.26561,-1.73434 2.80077,-3.05856 4.60547,-3.97266 1.82811,-0.91403 3.93748,-1.37106 6.32813,-1.37109 4.7109,3e-5 8.36715,1.87503 10.96875,5.625 2.62496,3.72659 3.93746,8.66018 3.9375,14.80078 l 0,0.73828 c -4e-5,5.48438 -1.31254,9.91407 -3.9375,13.28904 -2.62504,3.3516 -6.24613,5.0274 -10.86328,5.0274 -2.34378,0 -4.40627,-0.3868 -6.1875,-1.1602 -1.75783,-0.7969 -3.25783,-1.9687 -4.5,-3.5156 l 0,13.1133 5.73046,0.9843 0,4.4649 -18.38671,0 0,-4.4649 m 31.18359,-28.47652 c -3e-5,-4.33592 -0.84378,-7.8867 -2.53125,-10.65235 -1.68753,-2.76559 -4.19534,-4.1484 -7.52344,-4.14843 -1.96877,3e-5 -3.65627,0.44534 -5.0625,1.33593 -1.40626,0.89066 -2.54298,2.10941 -3.41015,3.65625 l 0,18.52735 c 0.86717,1.57032 1.99217,2.78907 3.375,3.65625 1.40623,0.84372 3.12888,1.26562 5.16796,1.26562 3.28123,0 5.7656,-1.19531 7.45313,-3.58594 1.68747,-2.39061 2.53122,-5.49608 2.53125,-9.3164 l 0,-0.73828"
           style="font-weight:normal;fill:#ffffff;-inkscape-font-specification:Roboto Slab"
           id="path3194" />
        <path
           d="m 274.43359,1006.1005 c -5.29689,0 -9.51563,-1.7578 -12.65625,-5.2735 -3.11719,-3.53903 -4.67578,-8.12105 -4.67578,-13.74607 l 0,-1.54687 c 0,-5.41404 1.60547,-9.91404 4.81641,-13.5 3.23436,-3.60934 7.05467,-5.41403 11.46094,-5.41406 5.10935,3e-5 8.97653,1.54691 11.60156,4.64062 2.6484,3.09378 3.97262,7.21878 3.97265,12.375 l 0,4.32422 -24.67968,0 -0.10547,0.17578 c 0.0703,3.65626 0.99608,6.66798 2.77734,9.03516 1.78124,2.34375 4.27733,3.51562 7.48828,3.51562 2.34373,0 4.39451,-0.3281 6.15235,-0.98437 1.78122,-0.67968 3.31637,-1.60547 4.60547,-2.77735 l 2.70703,4.50002 c -1.35941,1.3125 -3.1641,2.4258 -5.41407,3.3398 -2.22658,0.8907 -4.91017,1.336 -8.05078,1.336 m -1.05468,-34.03129 c -2.32033,4e-5 -4.3008,0.98441 -5.94141,2.95313 -1.64064,1.94534 -2.64845,4.39456 -3.02344,7.34766 l 0.0703,0.17578 17.54297,0 0,-0.91407 c -2e-5,-2.71872 -0.72659,-4.99215 -2.17968,-6.82031 -1.45315,-1.82809 -3.6094,-2.74215 -6.46875,-2.74219"
           style="font-weight:normal;fill:#ffffff;-inkscape-font-specification:Roboto Slab"
           id="path3196" />
        <path
           d="m 295.73828,1000.9325 5.73047,-0.98438 0,-27.17578 -5.73047,-0.98438 0,-4.46484 12.65625,0 0,32.625 5.73047,0.98438 0,4.4297 -18.38672,0 0,-4.4297 m 12.65625,-43.34766 -6.92578,0 0,-7.06641 6.92578,0 0,7.06641"
           style="font-weight:normal;fill:#ffffff;-inkscape-font-specification:Roboto Slab"
           id="path3198" />
        <path
           d="m 336.44922,1000.6864 c 2.29685,0 4.31247,-0.70312 6.04687,-2.10937 1.75779,-1.42968 2.63669,-3.17577 2.63672,-5.23828 l 6.22266,0 0.0703,0.21093 c 0.11715,3.28126 -1.34769,6.19923 -4.39453,8.75392 -3.02347,2.5312 -6.55081,3.7969 -10.58203,3.7969 -5.53127,0 -9.76173,-1.8047 -12.69141,-5.4141 -2.90625,-3.60937 -4.35938,-8.14452 -4.35937,-13.60547 l 0,-1.47656 c -10e-6,-5.41404 1.46484,-9.92575 4.39453,-13.53516 2.92968,-3.63277 7.14842,-5.44918 12.65625,-5.44921 3.04685,3e-5 5.77732,0.50394 8.1914,1.51171 2.43747,1.00785 4.4531,2.39066 6.04688,4.14844 l 0.31641,8.4375 -5.51954,0 -1.51171,-5.97656 c -0.82034,-0.79684 -1.87503,-1.44138 -3.16407,-1.93359 -1.28908,-0.49216 -2.74221,-0.73825 -4.35937,-0.73829 -3.63283,4e-5 -6.23439,1.31254 -7.80469,3.9375 -1.54688,2.60159 -2.32032,5.80081 -2.32031,9.59766 l 0,1.47656 c -1e-5,3.89064 0.77343,7.13673 2.32031,9.73828 1.54686,2.57813 4.14842,3.86719 7.80469,3.86719"
           style="font-weight:normal;fill:#ffffff;-inkscape-font-specification:Roboto Slab"
           id="path3200" />
        <path
           d="m 357.22656,1000.9325 5.73047,-0.98438 0,-43.98047 -5.73047,-0.98437 0,-4.46485 12.65625,0 0,21.86719 c 1.31249,-1.82809 2.91795,-3.24606 4.81641,-4.25391 1.89841,-1.00777 4.00779,-1.51168 6.32812,-1.51171 4.0781,3e-5 7.24216,1.21878 9.49219,3.65625 2.24996,2.43753 3.37496,6.18752 3.375,11.25 l 0,18.42187 5.73047,0.98438 0,4.4297 -18.38672,0 0,-4.4297 5.73047,-0.98438 0,-18.49219 c -3e-5,-3.1406 -0.67972,-5.46091 -2.03906,-6.96093 -1.33597,-1.49997 -3.33987,-2.24997 -6.01172,-2.25 -1.89846,3e-5 -3.63283,0.45706 -5.20313,1.37109 -1.54689,0.89065 -2.82423,2.1094 -3.83203,3.65625 l 0,22.67578 5.73047,0.98438 0,4.4297 -18.38672,0 0,-4.4297"
           style="font-weight:normal;fill:#ffffff;-inkscape-font-specification:Roboto Slab"
           id="path3202" />
        <path
           d="m 421.80859,1006.1005 c -5.29689,0 -9.51563,-1.7578 -12.65625,-5.2735 -3.11719,-3.53903 -4.67578,-8.12105 -4.67578,-13.74607 l 0,-1.54687 c 0,-5.41404 1.60547,-9.91404 4.81641,-13.5 3.23436,-3.60934 7.05467,-5.41403 11.46094,-5.41406 5.10935,3e-5 8.97653,1.54691 11.60156,4.64062 2.6484,3.09378 3.97262,7.21878 3.97265,12.375 l 0,4.32422 -24.67968,0 -0.10547,0.17578 c 0.0703,3.65626 0.99608,6.66798 2.77734,9.03516 1.78124,2.34375 4.27733,3.51562 7.48828,3.51562 2.34373,0 4.39451,-0.3281 6.15235,-0.98437 1.78122,-0.67968 3.31637,-1.60547 4.60547,-2.77735 l 2.70703,4.50002 c -1.35941,1.3125 -3.1641,2.4258 -5.41407,3.3398 -2.22658,0.8907 -4.91017,1.336 -8.05078,1.336 m -1.05468,-34.03129 c -2.32033,4e-5 -4.3008,0.98441 -5.94141,2.95313 -1.64064,1.94534 -2.64845,4.39456 -3.02344,7.34766 l 0.0703,0.17578 17.54297,0 0,-0.91407 c -2e-5,-2.71872 -0.72659,-4.99215 -2.17968,-6.82031 -1.45315,-1.82809 -3.6094,-2.74215 -6.46875,-2.74219"
           style="font-weight:normal;fill:#ffffff;-inkscape-font-specification:Roboto Slab"
           id="path3204" />
        <path
           d="m 443.11328,971.78796 0,-4.46484 11.91797,0 0.66797,5.51953 c 1.07811,-1.94528 2.40232,-3.46871 3.97265,-4.57031 1.59373,-1.10153 3.41014,-1.65231 5.44922,-1.65234 0.53904,3e-5 1.08982,0.0469 1.65235,0.14062 0.58591,0.0703 1.03122,0.15238 1.33593,0.24609 l -0.91406,6.4336 -3.9375,-0.21094 c -1.82814,3e-5 -3.3633,0.43363 -4.60547,1.30078 -1.2422,0.84378 -2.20314,2.03909 -2.88281,3.58594 l 0,21.83203 5.73047,0.98438 0,4.4297 -18.38672,0 0,-4.4297 5.73047,-0.98438 0,-27.17578 -5.73047,-0.98438"
           style="font-weight:normal;fill:#ffffff;-inkscape-font-specification:Roboto Slab"
           id="path3206" />
      </g>
    </g>
  </g>
</svg>
